<?xml version="1.0" encoding="UTF-8" standalone="no"?>
<!-- 
Logo Created by Patrick Hofmann
Github: https://github.com/The-PPWD
LinkedIn: https://www.linkedin.com/in/patrick-john-hofmann/ 
-->
<svg
   xmlns:dc="http://purl.org/dc/elements/1.1/"
   xmlns:cc="http://creativecommons.org/ns#"
   xmlns:rdf="http://www.w3.org/1999/02/22-rdf-syntax-ns#"
   xmlns:svg="http://www.w3.org/2000/svg"
   xmlns="http://www.w3.org/2000/svg"
   xmlns:sodipodi="http://sodipodi.sourceforge.net/DTD/sodipodi-0.dtd"
   xmlns:inkscape="http://www.inkscape.org/namespaces/inkscape"
   width="12.5in"
   height="12.5in"
   viewBox="0 0 317.5 317.50001"
   version="1.1"
   id="svg884"
   inkscape:version="1.0.2-2 (e86c870879, 2021-01-15)"
   sodipodi:docname="jb_vector.svg">
  <defs
     id="defs878" />
  <sodipodi:namedview
     id="base"
     pagecolor="#ffffff"
     bordercolor="#666666"
     borderopacity="1.0"
     inkscape:pageopacity="0.0"
     inkscape:pageshadow="2"
     inkscape:zoom="0.34115385"
     inkscape:cx="619.84216"
     inkscape:cy="542.41263"
     inkscape:document-units="in"
     inkscape:current-layer="layer1"
     inkscape:document-rotation="0"
     showgrid="false"
     units="in"
     inkscape:showpageshadow="false"
     inkscape:window-width="1920"
     inkscape:window-height="1057"
     inkscape:window-x="-8"
     inkscape:window-y="-8"
     inkscape:window-maximized="1" />
  <metadata
     id="metadata881">
    <rdf:RDF>
      <cc:Work
         rdf:about="">
        <dc:format>image/svg+xml</dc:format>
        <dc:type
           rdf:resource="http://purl.org/dc/dcmitype/StillImage" />
        <dc:title></dc:title>
      </cc:Work>
    </rdf:RDF>
  </metadata>
  <g
     inkscape:label="Layer 1"
     inkscape:groupmode="layer"
     id="layer1">
    <g
       id="g1473"
       transform="matrix(1.2951223,0,0,1.2951223,-33.097629,-18.031004)">
      <path
         id="path1143"
         style="font-style:italic;font-variant:normal;font-weight:bold;font-stretch:normal;font-size:254px;line-height:1.25;font-family:Verdana;-inkscape-font-specification:'Verdana Bold Italic';fill:#aaaaaa;fill-opacity:1;stroke:none;stroke-width:7.4168;stroke-miterlimit:4;stroke-dasharray:none"
         d="m 184.8712,42.7763 -7.8708,33.8584 h 19.0433 c 7.6068,0 13.5599,1.2401 17.8594,3.7207 4.2995,2.3976 6.4492,6.3258 6.4492,11.7828 0,7.6895 -2.9353,13.5599 -8.8056,17.6113 -5.7877,3.9687 -13.8909,5.9531 -24.3086,5.9531 h -19.3198 l -7.41,31.8735 h 22.637 c 10.9966,0 19.0577,1.5302 24.184,4.5894 5.1263,2.9766 7.6901,7.8549 7.6901,14.6348 0,8.7644 -3.7629,15.4202 -11.2866,19.9677 -7.5242,4.5477 -18.2309,6.8209 -32.1217,6.8208 h -22.352 c -5.0152,12.7284 -14.4439,21.7535 -25.6689,27.8066 -4.6101,2.4861 -9.5263,4.4998 -14.6084,6.1283 h 63.1253 c 29.1042,0 51.5938,-5.5336 67.4688,-16.4476 15.9578,-10.9141 23.9366,-26.0863 23.9366,-45.5166 0,-9.9218 -2.6046,-17.6121 -7.8134,-23.0694 -5.1266,-5.4569 -15.086,-11.7341 -23.6308,-13.0214 10.8578,-0.6465 23.2172,-9.7152 29.3357,-16.9912 6.2013,-7.3588 9.3022,-16.6605 9.3022,-27.9053 0,-13.2291 -5.8708,-23.4818 -17.6117,-30.7578 C 241.3536,46.4557 224.3624,42.7763 202.121,42.7763 Z" />
      <path
         id="path1145"
         style="font-style:italic;font-variant:normal;font-weight:bold;font-stretch:normal;font-size:254px;line-height:1.25;font-family:Verdana;-inkscape-font-specification:'Verdana Bold Italic';fill:#3aafa9;fill-opacity:1;stroke:none;stroke-width:7.42855"
         d="m 181.0639,42.7771 h -46.2066 -33.2084 l -7.8134,33.9824 h 33.1706 l -17.421,75.4058 c -15.785,58.9106 -75.2234,36.3394 -75.2234,36.3394 l -8.8061,39.0193 c 0,0 106.2106,18.3229 121.9956,-40.5877 z"
         sodipodi:nodetypes="cccccccccc" />
    </g>
  </g>
</svg>




